<svg width="55" height="50" viewBox="0 0 55 50" fill="none" xmlns="http://www.w3.org/2000/svg">
<path d="M0 25.0057C0 21.2863 4.56278 17.7615 11.5583 15.5756C9.94395 8.29709 10.6614 2.50629 13.8229 0.652323C14.5516 0.217441 15.4036 0.0114441 16.3341 0.0114441V2.56352C15.8184 2.56352 15.4036 2.66651 15.0561 2.86107C13.5314 3.75372 12.87 7.15267 13.3857 11.5244C13.509 12.6001 13.7108 13.7331 13.9574 14.889C16.1547 14.3397 18.5538 13.9162 21.0762 13.6416C22.5897 11.5244 24.1592 9.60174 25.7399 7.91943C22.0852 4.45182 18.6547 2.55207 16.3229 2.55207V0C19.4058 0 23.4417 2.24308 27.5224 6.13413C31.6031 2.26597 35.639 0.0457772 38.722 0.0457772V2.59785C36.4013 2.59785 32.9596 4.48615 29.3049 7.93088C30.8744 9.61318 32.4439 11.5244 33.935 13.6416C36.4686 13.9162 38.8677 14.3397 41.065 14.9004C41.3229 13.756 41.5135 12.6459 41.648 11.5816C42.1749 7.20989 41.5247 3.81094 40.0112 2.90684C39.6749 2.70085 39.2377 2.60929 38.722 2.60929V0.0572213C39.6637 0.0572213 40.5157 0.263218 41.2556 0.6981C44.4058 2.55207 45.1121 8.33143 43.4865 15.5871C50.4596 17.7844 55 21.2978 55 25.0057C55 28.7251 50.4372 32.2499 43.4417 34.4358C45.0561 41.7144 44.3386 47.5051 41.1771 49.3591C40.4484 49.794 39.5964 50 38.6547 50C35.5717 50 31.5359 47.7569 27.4552 43.8659C23.3744 47.734 19.3386 49.9542 16.2556 49.9542C15.3139 49.9542 14.4619 49.7482 13.722 49.3133C10.5718 47.4594 9.86547 41.68 11.491 34.4244C4.54036 32.2385 0 28.7137 0 25.0057ZM14.5964 17.3724C15.0112 18.8487 15.5269 20.3708 16.1099 21.8929C16.5695 20.9773 17.0516 20.0618 17.5785 19.1463C18.0942 18.2307 18.6435 17.3381 19.1928 16.4683C17.6009 16.7086 16.065 17.0062 14.5964 17.3724ZM19.7309 29.5605C20.6054 31.1055 21.5022 32.5704 22.4327 33.9323C24.1031 34.081 25.796 34.1611 27.5 34.1611C29.1928 34.1611 30.8856 34.081 32.5448 33.9437C33.4753 32.5818 34.3834 31.1284 35.2578 29.5949C36.1099 28.0957 36.8834 26.5736 37.5897 25.0401C36.8946 23.5065 36.1099 21.973 35.2691 20.4738C34.3946 18.9288 33.4978 17.4639 32.5673 16.1021C30.8969 15.9533 29.204 15.8732 27.5 15.8732C25.8072 15.8732 24.1144 15.9533 22.4552 16.0906C21.5247 17.4525 20.6166 18.9059 19.7422 20.4395C18.8901 21.9387 18.1166 23.4607 17.4103 24.9943C18.1166 26.5278 18.8901 28.0613 19.7309 29.5605ZM16.1099 28.0728C15.5045 29.6063 14.9888 31.1399 14.5628 32.6276C16.0314 32.9938 17.5785 33.3028 19.1816 33.5431C18.6323 32.6619 18.083 31.7578 17.5673 30.8309C17.0516 29.9153 16.5695 28.9883 16.1099 28.0728ZM27.4776 40.2838C28.5202 39.1852 29.5628 37.9606 30.5942 36.6217C29.5852 36.6674 28.5538 36.7018 27.5112 36.7018C26.4574 36.7018 25.4148 36.6789 24.3946 36.6217C25.4036 37.9606 26.4462 39.1852 27.4776 40.2838ZM35.8184 33.5431C37.4103 33.3028 38.9462 33.0053 40.4148 32.639C40 31.1627 39.4843 29.6406 38.9013 28.1186C38.4417 29.0341 37.9596 29.9496 37.4327 30.8652C36.9058 31.7807 36.3677 32.6734 35.8184 33.5431ZM27.5336 9.72763C26.491 10.8263 25.4484 12.0508 24.417 13.3898C25.426 13.344 26.4574 13.3097 27.5 13.3097C28.5538 13.3097 29.5964 13.3326 30.6166 13.3898C29.6076 12.0508 28.565 10.8263 27.5336 9.72763ZM35.8296 16.4683C36.3789 17.3495 36.9283 18.2536 37.4439 19.1806C37.9596 20.0961 38.4417 21.0117 38.9013 21.9272C39.5067 20.3937 40.0224 18.8602 40.4484 17.3724C38.9798 17.0176 37.4327 16.7086 35.8296 16.4683ZM45.9753 30.7965C49.9439 29.0684 52.5112 26.8025 52.5112 25.0057C52.5112 23.209 49.9439 20.9316 45.9753 19.2149C45.0112 18.7915 43.9574 18.4138 42.87 18.0591C42.2309 20.3021 41.3901 22.6368 40.3475 25.0286C41.3789 27.409 42.2085 29.7322 42.8363 31.9638C43.9462 31.6091 45 31.22 45.9753 30.7965ZM39.9439 47.1504C41.4686 46.2577 42.13 42.8588 41.6143 38.4871C41.491 37.4113 41.2892 36.2783 41.0426 35.1225C38.8453 35.6718 36.4462 36.0952 33.9238 36.3699C32.4103 38.4871 30.8408 40.4097 29.2601 42.092C32.9148 45.5596 36.3453 47.4594 38.6771 47.4594C39.1816 47.4479 39.6076 47.3449 39.9439 47.1504ZM13.352 38.4298C12.8251 42.8016 13.4753 46.2005 14.9888 47.1046C15.3251 47.3106 15.7623 47.4021 16.278 47.4021C18.5987 47.4021 22.0404 45.5139 25.6951 42.0691C24.1256 40.3868 22.5561 38.4756 21.065 36.3584C18.5314 36.0838 16.1323 35.6603 13.935 35.0996C13.6771 36.2554 13.4753 37.3655 13.352 38.4298ZM9.03588 30.7965C10 31.22 11.0538 31.5976 12.1413 31.9524C12.7803 29.7093 13.6211 27.3747 14.6637 24.9828C13.6323 22.6024 12.8027 20.2792 12.1749 18.0476C11.065 18.4024 10.0112 18.7915 9.02467 19.2149C5.05606 20.943 2.48879 23.209 2.48879 25.0057C2.5 26.8025 5.06727 29.0799 9.03588 30.7965Z" fill="url(#paint0_linear_30_15)"/>
<path d="M27.4798 20.3391L26.241 23.8727H22.2318L25.4753 26.0567L24.2364 29.5903L27.4798 27.4064L30.7233 29.5903L29.4844 26.0567L32.7279 23.8727H28.7187L27.4798 20.3391Z" fill="white"/>
<defs>
<linearGradient id="paint0_linear_30_15" x1="44.5" y1="50" x2="11" y2="-0.500001" gradientUnits="userSpaceOnUse">
<stop stop-color="#1488CC"/>
<stop offset="0.48" stop-color="#2B32B2"/>
</linearGradient>
</defs>
</svg>
